# xmcd CD database file
#
# Track frame offsets:
#	150
#	18280
#	39159
#	60443
#	80330
#	98699
#	117940
#	136904
#	155510
#	174598
#	193020
#	209426
#	229734
#	247241
#	265868
#	287430
#
# Disc length: 4061 seconds
#
# Revision: 1
# Processed by: cddbd v1.5.2PL0 Copyright (c) Steve Scherf et al.
# Submitted via: CDex 1.70beta2
#
DISCID=d20fdb10
DTITLE=David Kada - Dile tu
DYEAR=2017
DGENRE=Salsa
TTITLE0=David Kada - Tu amor fue diferente
TTITLE1=David Kada - estos celos
TTITLE2=David Kada - sempre en mi mente
TTITLE3=David Kada - no le pare
TTITLE4=David Kada - contigo me siente nitido
TTITLE5=David Kada - me quedas tu
TTITLE6=David Kada - Tus cartas llegan
TTITLE7=David Kada - Asi te necesito yo
TTITLE8=David Kada - A lo loco
TTITLE9=David Kada - Taboga
TTITLE10=David Kada - Dispuesto a lo que sea
TTITLE11=David Kada - Todo esta bien
TTITLE12=David Kada - Ilucion de amor
TTITLE13=David Kada - Tu eres
TTITLE14=David Kada - Mi gente
TTITLE15=David Kada - 
EXTD=YEAR: 2017
EXTT0=
EXTT1=
EXTT2=
EXTT3=
EXTT4=
EXTT5=
EXTT6=
EXTT7=
EXTT8=
EXTT9=
EXTT10=
EXTT11=
EXTT12=
EXTT13=
EXTT14=
EXTT15=
PLAYORDER=
